<svg width="24" height="26" viewBox="0 0 24 26" fill="none" xmlns="http://www.w3.org/2000/svg">
<path d="M20.75 3H19.5V0.5H17V3H7V0.5H4.5V3H3.25C1.8625 3 0.7625 4.125 0.7625 5.5L0.75 23C0.75 24.375 1.8625 25.5 3.25 25.5H20.75C22.125 25.5 23.25 24.375 23.25 23V5.5C23.25 4.125 22.125 3 20.75 3ZM20.75 23H3.25V10.5H20.75V23ZM8.25 15.5H5.75V13H8.25V15.5ZM13.25 15.5H10.75V13H13.25V15.5ZM18.25 15.5H15.75V13H18.25V15.5ZM8.25 20.5H5.75V18H8.25V20.5ZM13.25 20.5H10.75V18H13.25V20.5ZM18.25 20.5H15.75V18H18.25V20.5Z" fill="#111111"/>
</svg>
