<svg width="24" height="24" viewBox="0 0 24 24" fill="none" xmlns="http://www.w3.org/2000/svg">
<path d="M20.9249 13.175C20.9749 12.8 20.9999 12.4125 20.9999 12C20.9999 11.6 20.9749 11.2 20.9124 10.825L23.4499 8.85C23.6749 8.675 23.7374 8.3375 23.5999 8.0875L21.1999 3.9375C21.0499 3.6625 20.7374 3.575 20.4624 3.6625L17.4749 4.8625C16.8499 4.3875 16.1874 3.9875 15.4499 3.6875L14.9999 0.5125C14.9499 0.2125 14.6999 0 14.3999 0H9.59989C9.29989 0 9.06239 0.2125 9.01239 0.5125L8.56239 3.6875C7.82489 3.9875 7.14989 4.4 6.53739 4.8625L3.54989 3.6625C3.27489 3.5625 2.96239 3.6625 2.81239 3.9375L0.424893 8.0875C0.274893 8.35 0.324893 8.675 0.574893 8.85L3.11239 10.825C3.04989 11.2 2.99989 11.6125 2.99989 12C2.99989 12.3875 3.02489 12.8 3.08739 13.175L0.549893 15.15C0.324893 15.325 0.262393 15.6625 0.399893 15.9125L2.79989 20.0625C2.94989 20.3375 3.26239 20.425 3.53739 20.3375L6.52489 19.1375C7.14989 19.6125 7.81239 20.0125 8.54989 20.3125L8.99989 23.4875C9.06239 23.7875 9.29989 24 9.59989 24H14.3999C14.6999 24 14.9499 23.7875 14.9874 23.4875L15.4374 20.3125C16.1749 20.0125 16.8499 19.6125 17.4624 19.1375L20.4499 20.3375C20.7249 20.4375 21.0374 20.3375 21.1874 20.0625L23.5874 15.9125C23.7374 15.6375 23.6749 15.325 23.4374 15.15L20.9249 13.175ZM11.9999 16.5C9.52489 16.5 7.49989 14.475 7.49989 12C7.49989 9.525 9.52489 7.5 11.9999 7.5C14.4749 7.5 16.4999 9.525 16.4999 12C16.4999 14.475 14.4749 16.5 11.9999 16.5Z" fill="#111111"/>
</svg>
