<svg width="18" height="18" viewBox="0 0 18 18" fill="none" xmlns="http://www.w3.org/2000/svg">
<path d="M5 5.68421H1C0.716667 5.68421 0.479333 5.59326 0.288 5.41137C0.0960001 5.23011 0 5.00526 0 4.73684V0.947368C0 0.678947 0.0960001 0.453789 0.288 0.271895C0.479333 0.0906315 0.716667 0 1 0C1.28333 0 1.521 0.0906315 1.713 0.271895C1.90433 0.453789 2 0.678947 2 0.947368V3.17368C2.83333 2.19474 3.854 1.42105 5.062 0.852632C6.27067 0.284211 7.58333 0 9 0C10.8333 0 12.4793 0.462 13.938 1.386C15.396 2.30937 16.4833 3.51316 17.2 4.99737C17.2833 5.17105 17.2373 5.32895 17.062 5.47105C16.8873 5.61316 16.6667 5.68421 16.4 5.68421C16.1167 5.68421 15.8457 5.64095 15.587 5.55442C15.329 5.46726 15.1333 5.31316 15 5.09211C14.3833 4.12895 13.55 3.35526 12.5 2.77105C11.45 2.18684 10.2833 1.89474 9 1.89474C8.05 1.89474 7.154 2.06053 6.312 2.39211C5.47067 2.72368 4.73333 3.18947 4.1 3.78947H5C5.28333 3.78947 5.521 3.88011 5.713 4.06137C5.90433 4.24326 6 4.46842 6 4.73684C6 5.00526 5.90433 5.23011 5.713 5.41137C5.521 5.59326 5.28333 5.68421 5 5.68421ZM4 14.2105H14C14.2 14.2105 14.35 14.1237 14.45 13.95C14.55 13.7763 14.5333 13.6105 14.4 13.4526L11.65 9.97105C11.55 9.84474 11.4167 9.78158 11.25 9.78158C11.0833 9.78158 10.95 9.84474 10.85 9.97105L8.25 13.2632L6.4 10.9184C6.3 10.7921 6.16667 10.7289 6 10.7289C5.83333 10.7289 5.7 10.7921 5.6 10.9184L3.6 13.4526C3.46667 13.6105 3.45 13.7763 3.55 13.95C3.65 14.1237 3.8 14.2105 4 14.2105ZM2 18C1.45 18 0.979 17.8146 0.587 17.4439C0.195667 17.0725 0 16.6263 0 16.1053V9.47368C0 9.20526 0.0960001 8.98011 0.288 8.79821C0.479333 8.61695 0.716667 8.52632 1 8.52632C1.28333 8.52632 1.521 8.61695 1.713 8.79821C1.90433 8.98011 2 9.20526 2 9.47368V16.1053H16V9.47368C16 9.20526 16.096 8.98011 16.288 8.79821C16.4793 8.61695 16.7167 8.52632 17 8.52632C17.2833 8.52632 17.5207 8.61695 17.712 8.79821C17.904 8.98011 18 9.20526 18 9.47368V16.1053C18 16.6263 17.8043 17.0725 17.413 17.4439C17.021 17.8146 16.55 18 16 18H2Z" fill="#111111"/>
</svg>
