<svg width="27" height="30" viewBox="0 0 27 30" fill="none" xmlns="http://www.w3.org/2000/svg">
<path d="M13.5 0C6.3377 0 0.5 5.74842 0.5 12.8012C0.5 19.8539 6.3377 25.6024 13.5 25.6024V30L15.7231 28.5971C18.9526 26.5574 24.8419 22.1537 26.2094 15.4792C26.3966 14.6183 26.5 13.7225 26.5 12.8012C26.5 5.74842 20.6623 0 13.5 0ZM13.5 2.84471C19.1008 2.84471 23.6111 7.28603 23.6111 12.8012C23.6111 13.5183 23.5311 14.217 23.3826 14.8958L23.3798 14.9069L23.377 14.9153C22.5187 19.1084 19.2368 22.1961 16.3889 24.3773V22.4715L14.7639 22.6715C14.3292 22.725 13.9101 22.7577 13.5 22.7577C7.89919 22.7577 3.38889 18.3163 3.38889 12.8012C3.38889 7.28603 7.89919 2.84471 13.5 2.84471Z" fill="#B40000"/>
</svg>
