<svg width="18" height="18" viewBox="0 0 18 18" fill="none" xmlns="http://www.w3.org/2000/svg">
<path d="M2 18H3V15H0V16C0 16.55 0.195833 17.0208 0.5875 17.4125C0.979167 17.8042 1.45 18 2 18ZM5 18H8V15H5V18ZM10 18H13V15H10V18ZM15 18H16C16.55 18 17.0208 17.8042 17.4125 17.4125C17.8042 17.0208 18 16.55 18 16V15H15V18ZM0 3H3V0H2C1.45 0 0.979167 0.195833 0.5875 0.5875C0.195833 0.979167 0 1.45 0 2V3ZM0 8H3V5H0V8ZM0 13H3V10H0V13ZM5 3H8V0H5V3ZM5 8H8V5H5V8ZM5 13H8V10H5V13ZM10 3H13V0H10V3ZM10 8H13V5H10V8ZM10 13H13V10H10V13ZM15 3H18V2C18 1.45 17.8042 0.979167 17.4125 0.5875C17.0208 0.195833 16.55 0 16 0H15V3ZM15 8H18V5H15V8ZM15 13H18V10H15V13Z" fill="#111111"/>
</svg>
