<svg width="33" height="33" viewBox="0 0 33 33" fill="none" xmlns="http://www.w3.org/2000/svg">
<path fill-rule="evenodd" clip-rule="evenodd" d="M2.91617 2.74942C0.666748 4.99884 0.666748 8.61923 0.666748 15.86V17.14C0.666748 24.3808 0.666748 28.0012 2.91617 30.2506C5.16559 32.5 8.78598 32.5 16.0268 32.5H17.3067C24.5475 32.5 28.1679 32.5 30.4173 30.2506C32.6668 28.0012 32.6667 24.3808 32.6667 17.14V15.86C32.6667 8.61923 32.6668 4.99884 30.4173 2.74942C28.1679 0.5 24.5475 0.5 17.3067 0.5H16.0267C8.78598 0.5 5.16559 0.5 2.91617 2.74942ZM6.0668 10.2334C6.24013 18.5534 10.4001 23.5534 17.6934 23.5534H18.1068V18.7934C20.7868 19.06 22.8134 21.0201 23.6267 23.5534H27.4135C26.3735 19.7667 23.64 17.6734 21.9333 16.8734C23.64 15.8867 26.04 13.4867 26.6133 10.2334H23.1732C22.4266 12.8734 20.2135 15.2734 18.1068 15.5V10.2334H14.6667V19.46C12.5334 18.9267 9.84012 16.3401 9.72012 10.2334H6.0668Z" fill="white"/>
</svg>
