<svg width="19" height="21" viewBox="0 0 19 21" fill="none" xmlns="http://www.w3.org/2000/svg">
<path d="M17.0711 9.58581L8.93941 17.7175C7.37671 19.2802 4.84526 19.2802 3.28256 17.7175C1.71985 16.1548 1.71985 13.6234 3.28256 12.0607L12.1214 3.22185C13.0972 2.24604 14.6811 2.24604 15.6569 3.22185C16.6327 4.19766 16.6327 5.78158 15.6569 6.75738L8.23231 14.182C7.8434 14.5709 7.207 14.5709 6.81809 14.182C6.42918 13.7931 6.42918 13.1567 6.81809 12.7678L13.5356 6.05028L12.4749 4.98962L5.75743 11.7071C4.78162 12.6829 4.78162 14.2669 5.75743 15.2427C6.73324 16.2185 8.31716 16.2185 9.29297 15.2427L16.7176 7.81804C18.2803 6.25534 18.2803 3.7239 16.7176 2.16119C15.1549 0.598485 12.6234 0.598485 11.0607 2.16119L2.2219 11C0.0722932 13.1496 0.0722939 16.6286 2.2219 18.7782C4.3715 20.9278 7.85047 20.9278 10.0001 18.7782L18.1318 10.6465L17.0711 9.58581Z" fill="#111111"/>
</svg>
