<svg width="39" height="33" viewBox="0 0 39 33" fill="none" xmlns="http://www.w3.org/2000/svg">
<path d="M14.6075 30.5618C13.4709 30.5618 13.664 30.1326 13.272 29.0504L9.92953 18.05L35.6583 2.78648" fill="#C8DAEA"/>
<path d="M14.6075 30.5618C15.4846 30.5618 15.871 30.1603 16.3606 29.6843L21.0385 25.1355L15.2034 21.6168" fill="#A9C9DD"/>
<path d="M15.2034 21.6168L29.3424 32.0641C30.9558 32.9544 32.1203 32.4934 32.5222 30.5661L38.2776 3.44484C38.8668 1.08242 37.377 0.0109337 35.8335 0.711691L2.03821 13.743C-0.268635 14.6683 -0.255186 15.9553 1.61772 16.5287L10.2904 19.2356L30.3684 6.56857C31.3163 5.9938 32.1862 6.30281 31.4722 6.9365" fill="url(#paint0_linear_3429_418)"/>
<defs>
<linearGradient id="paint0_linear_3429_418" x1="402.963" y1="224.193" x2="490.811" y2="424.096" gradientUnits="userSpaceOnUse">
<stop stop-color="#EFF7FC"/>
<stop offset="1" stop-color="white"/>
</linearGradient>
</defs>
</svg>
