<svg width="24" height="24" viewBox="0 0 24 24" fill="none" xmlns="http://www.w3.org/2000/svg">
<path d="M0.75 15.125C0.583333 15.125 0.4375 15.0625 0.3125 14.9375C0.1875 14.8125 0.125 14.6667 0.125 14.5C0.125 14.3333 0.1875 14.1875 0.3125 14.0625C0.4375 13.9375 0.583333 13.875 0.75 13.875C0.916667 13.875 1.0625 13.9375 1.1875 14.0625C1.3125 14.1875 1.375 14.3333 1.375 14.5C1.375 14.6667 1.3125 14.8125 1.1875 14.9375C1.0625 15.0625 0.916667 15.125 0.75 15.125ZM0.75 10.125C0.583333 10.125 0.4375 10.0625 0.3125 9.9375C0.1875 9.8125 0.125 9.66667 0.125 9.5C0.125 9.33333 0.1875 9.1875 0.3125 9.0625C0.4375 8.9375 0.583333 8.875 0.75 8.875C0.916667 8.875 1.0625 8.9375 1.1875 9.0625C1.3125 9.1875 1.375 9.33333 1.375 9.5C1.375 9.66667 1.3125 9.8125 1.1875 9.9375C1.0625 10.0625 0.916667 10.125 0.75 10.125ZM4.5 20.75C4.14583 20.75 3.84896 20.6302 3.60938 20.3906C3.36979 20.151 3.25 19.8542 3.25 19.5C3.25 19.1458 3.36979 18.849 3.60938 18.6094C3.84896 18.3698 4.14583 18.25 4.5 18.25C4.85417 18.25 5.15104 18.3698 5.39062 18.6094C5.63021 18.849 5.75 19.1458 5.75 19.5C5.75 19.8542 5.63021 20.151 5.39062 20.3906C5.15104 20.6302 4.85417 20.75 4.5 20.75ZM4.5 15.75C4.14583 15.75 3.84896 15.6302 3.60938 15.3906C3.36979 15.151 3.25 14.8542 3.25 14.5C3.25 14.1458 3.36979 13.849 3.60938 13.6094C3.84896 13.3698 4.14583 13.25 4.5 13.25C4.85417 13.25 5.15104 13.3698 5.39062 13.6094C5.63021 13.849 5.75 14.1458 5.75 14.5C5.75 14.8542 5.63021 15.151 5.39062 15.3906C5.15104 15.6302 4.85417 15.75 4.5 15.75ZM4.5 10.75C4.14583 10.75 3.84896 10.6302 3.60938 10.3906C3.36979 10.151 3.25 9.85417 3.25 9.5C3.25 9.14583 3.36979 8.84896 3.60938 8.60938C3.84896 8.36979 4.14583 8.25 4.5 8.25C4.85417 8.25 5.15104 8.36979 5.39062 8.60938C5.63021 8.84896 5.75 9.14583 5.75 9.5C5.75 9.85417 5.63021 10.151 5.39062 10.3906C5.15104 10.6302 4.85417 10.75 4.5 10.75ZM4.5 5.75C4.14583 5.75 3.84896 5.63021 3.60938 5.39062C3.36979 5.15104 3.25 4.85417 3.25 4.5C3.25 4.14583 3.36979 3.84896 3.60938 3.60938C3.84896 3.36979 4.14583 3.25 4.5 3.25C4.85417 3.25 5.15104 3.36979 5.39062 3.60938C5.63021 3.84896 5.75 4.14583 5.75 4.5C5.75 4.85417 5.63021 5.15104 5.39062 5.39062C5.15104 5.63021 4.85417 5.75 4.5 5.75ZM9.5 20.75C9.14583 20.75 8.84896 20.6302 8.60938 20.3906C8.36979 20.151 8.25 19.8542 8.25 19.5C8.25 19.1458 8.36979 18.849 8.60938 18.6094C8.84896 18.3698 9.14583 18.25 9.5 18.25C9.85417 18.25 10.151 18.3698 10.3906 18.6094C10.6302 18.849 10.75 19.1458 10.75 19.5C10.75 19.8542 10.6302 20.151 10.3906 20.3906C10.151 20.6302 9.85417 20.75 9.5 20.75ZM9.5 5.75C9.14583 5.75 8.84896 5.63021 8.60938 5.39062C8.36979 5.15104 8.25 4.85417 8.25 4.5C8.25 4.14583 8.36979 3.84896 8.60938 3.60938C8.84896 3.36979 9.14583 3.25 9.5 3.25C9.85417 3.25 10.151 3.36979 10.3906 3.60938C10.6302 3.84896 10.75 4.14583 10.75 4.5C10.75 4.85417 10.6302 5.15104 10.3906 5.39062C10.151 5.63021 9.85417 5.75 9.5 5.75ZM9.5 23.875C9.33333 23.875 9.1875 23.8125 9.0625 23.6875C8.9375 23.5625 8.875 23.4167 8.875 23.25C8.875 23.0833 8.9375 22.9375 9.0625 22.8125C9.1875 22.6875 9.33333 22.625 9.5 22.625C9.66667 22.625 9.8125 22.6875 9.9375 22.8125C10.0625 22.9375 10.125 23.0833 10.125 23.25C10.125 23.4167 10.0625 23.5625 9.9375 23.6875C9.8125 23.8125 9.66667 23.875 9.5 23.875ZM9.5 1.375C9.33333 1.375 9.1875 1.3125 9.0625 1.1875C8.9375 1.0625 8.875 0.916667 8.875 0.75C8.875 0.583333 8.9375 0.4375 9.0625 0.3125C9.1875 0.1875 9.33333 0.125 9.5 0.125C9.66667 0.125 9.8125 0.1875 9.9375 0.3125C10.0625 0.4375 10.125 0.583333 10.125 0.75C10.125 0.916667 10.0625 1.0625 9.9375 1.1875C9.8125 1.3125 9.66667 1.375 9.5 1.375ZM14.5 20.75C14.1458 20.75 13.849 20.6302 13.6094 20.3906C13.3698 20.151 13.25 19.8542 13.25 19.5C13.25 19.1458 13.3698 18.849 13.6094 18.6094C13.849 18.3698 14.1458 18.25 14.5 18.25C14.8542 18.25 15.151 18.3698 15.3906 18.6094C15.6302 18.849 15.75 19.1458 15.75 19.5C15.75 19.8542 15.6302 20.151 15.3906 20.3906C15.151 20.6302 14.8542 20.75 14.5 20.75ZM14.5 5.75C14.1458 5.75 13.849 5.63021 13.6094 5.39062C13.3698 5.15104 13.25 4.85417 13.25 4.5C13.25 4.14583 13.3698 3.84896 13.6094 3.60938C13.849 3.36979 14.1458 3.25 14.5 3.25C14.8542 3.25 15.151 3.36979 15.3906 3.60938C15.6302 3.84896 15.75 4.14583 15.75 4.5C15.75 4.85417 15.6302 5.15104 15.3906 5.39062C15.151 5.63021 14.8542 5.75 14.5 5.75ZM14.5 23.875C14.3333 23.875 14.1875 23.8125 14.0625 23.6875C13.9375 23.5625 13.875 23.4167 13.875 23.25C13.875 23.0833 13.9375 22.9375 14.0625 22.8125C14.1875 22.6875 14.3333 22.625 14.5 22.625C14.6667 22.625 14.8125 22.6875 14.9375 22.8125C15.0625 22.9375 15.125 23.0833 15.125 23.25C15.125 23.4167 15.0625 23.5625 14.9375 23.6875C14.8125 23.8125 14.6667 23.875 14.5 23.875ZM14.5 1.375C14.3333 1.375 14.1875 1.3125 14.0625 1.1875C13.9375 1.0625 13.875 0.916667 13.875 0.75C13.875 0.583333 13.9375 0.4375 14.0625 0.3125C14.1875 0.1875 14.3333 0.125 14.5 0.125C14.6667 0.125 14.8125 0.1875 14.9375 0.3125C15.0625 0.4375 15.125 0.583333 15.125 0.75C15.125 0.916667 15.0625 1.0625 14.9375 1.1875C14.8125 1.3125 14.6667 1.375 14.5 1.375ZM19.5 20.75C19.1458 20.75 18.849 20.6302 18.6094 20.3906C18.3698 20.151 18.25 19.8542 18.25 19.5C18.25 19.1458 18.3698 18.849 18.6094 18.6094C18.849 18.3698 19.1458 18.25 19.5 18.25C19.8542 18.25 20.151 18.3698 20.3906 18.6094C20.6302 18.849 20.75 19.1458 20.75 19.5C20.75 19.8542 20.6302 20.151 20.3906 20.3906C20.151 20.6302 19.8542 20.75 19.5 20.75ZM19.5 15.75C19.1458 15.75 18.849 15.6302 18.6094 15.3906C18.3698 15.151 18.25 14.8542 18.25 14.5C18.25 14.1458 18.3698 13.849 18.6094 13.6094C18.849 13.3698 19.1458 13.25 19.5 13.25C19.8542 13.25 20.151 13.3698 20.3906 13.6094C20.6302 13.849 20.75 14.1458 20.75 14.5C20.75 14.8542 20.6302 15.151 20.3906 15.3906C20.151 15.6302 19.8542 15.75 19.5 15.75ZM19.5 10.75C19.1458 10.75 18.849 10.6302 18.6094 10.3906C18.3698 10.151 18.25 9.85417 18.25 9.5C18.25 9.14583 18.3698 8.84896 18.6094 8.60938C18.849 8.36979 19.1458 8.25 19.5 8.25C19.8542 8.25 20.151 8.36979 20.3906 8.60938C20.6302 8.84896 20.75 9.14583 20.75 9.5C20.75 9.85417 20.6302 10.151 20.3906 10.3906C20.151 10.6302 19.8542 10.75 19.5 10.75ZM19.5 5.75C19.1458 5.75 18.849 5.63021 18.6094 5.39062C18.3698 5.15104 18.25 4.85417 18.25 4.5C18.25 4.14583 18.3698 3.84896 18.6094 3.60938C18.849 3.36979 19.1458 3.25 19.5 3.25C19.8542 3.25 20.151 3.36979 20.3906 3.60938C20.6302 3.84896 20.75 4.14583 20.75 4.5C20.75 4.85417 20.6302 5.15104 20.3906 5.39062C20.151 5.63021 19.8542 5.75 19.5 5.75ZM23.25 15.125C23.0833 15.125 22.9375 15.0625 22.8125 14.9375C22.6875 14.8125 22.625 14.6667 22.625 14.5C22.625 14.3333 22.6875 14.1875 22.8125 14.0625C22.9375 13.9375 23.0833 13.875 23.25 13.875C23.4167 13.875 23.5625 13.9375 23.6875 14.0625C23.8125 14.1875 23.875 14.3333 23.875 14.5C23.875 14.6667 23.8125 14.8125 23.6875 14.9375C23.5625 15.0625 23.4167 15.125 23.25 15.125ZM23.25 10.125C23.0833 10.125 22.9375 10.0625 22.8125 9.9375C22.6875 9.8125 22.625 9.66667 22.625 9.5C22.625 9.33333 22.6875 9.1875 22.8125 9.0625C22.9375 8.9375 23.0833 8.875 23.25 8.875C23.4167 8.875 23.5625 8.9375 23.6875 9.0625C23.8125 9.1875 23.875 9.33333 23.875 9.5C23.875 9.66667 23.8125 9.8125 23.6875 9.9375C23.5625 10.0625 23.4167 10.125 23.25 10.125ZM7 17V16.3125C7 15.2292 7.52083 14.4479 8.5625 13.9688C9.60417 13.4896 10.75 13.25 12 13.25C13.25 13.25 14.3958 13.4896 15.4375 13.9688C16.4792 14.4479 17 15.2292 17 16.3125V17H7ZM12 12C11.3125 12 10.724 11.7552 10.2344 11.2656C9.74479 10.776 9.5 10.1875 9.5 9.5C9.5 8.8125 9.74479 8.22396 10.2344 7.73438C10.724 7.24479 11.3125 7 12 7C12.6875 7 13.276 7.24479 13.7656 7.73438C14.2552 8.22396 14.5 8.8125 14.5 9.5C14.5 10.1875 14.2552 10.776 13.7656 11.2656C13.276 11.7552 12.6875 12 12 12Z" fill="#111111"/>
</svg>
